<?xml version="1.0" standalone="no"?>
<!DOCTYPE svg PUBLIC "-//W3C//DTD SVG 20010904//EN"
 "http://www.w3.org/TR/2001/REC-SVG-20010904/DTD/svg10.dtd">
<svg version="1.0" xmlns="http://www.w3.org/2000/svg"
 width="1920.000000pt" height="1920.000000pt" viewBox="0 0 1920.000000 1920.000000"
 preserveAspectRatio="xMidYMid meet">

<g transform="translate(0.000000,1920.000000) scale(0.100000,-0.100000)"
fill="#000000" stroke="none">
<path d="M1975 18378 c-44 -4 -105 -16 -135 -25 -30 -9 -63 -17 -73 -18 -20
-2 -35 -19 -83 -99 -121 -202 -191 -489 -134 -546 31 -31 95 -27 153 10 l47
30 428 -60 c235 -33 438 -62 452 -65 14 -3 90 -14 170 -25 80 -10 231 -30 335
-44 238 -32 537 -63 675 -71 58 -3 152 -10 210 -16 58 -5 135 -9 173 -9 53 0
67 -3 67 -15 0 -8 9 -15 19 -15 12 0 40 -26 72 -67 59 -75 155 -189 331 -391
l117 -134 -34 -45 c-19 -24 -39 -61 -46 -81 -18 -55 -5 -442 31 -932 115
-1565 136 -1892 210 -3230 35 -641 52 -924 90 -1510 9 -141 60 -856 110 -1535
11 -148 22 -310 26 -360 3 -49 21 -286 40 -525 88 -1121 134 -1576 210 -2048
33 -211 35 -200 -28 -162 -213 127 -436 185 -615 161 -82 -12 -185 -54 -218
-91 -16 -18 -9 -16 46 9 152 72 362 57 574 -38 313 -142 834 -614 1152 -1043
297 -403 654 -1168 787 -1689 79 -308 101 -507 101 -904 0 -363 -13 -495 -70
-721 -68 -269 -230 -578 -428 -812 -163 -193 -325 -294 -659 -407 -93 -32
-168 -61 -168 -66 0 -17 67 -9 206 25 275 68 457 155 603 288 41 37 59 48 75
43 12 -3 104 -26 206 -50 537 -127 1340 -248 2040 -307 202 -17 919 -17 1145
0 732 54 1477 168 2028 308 236 60 384 111 532 183 123 60 131 67 271 223 28
31 45 98 70 278 9 69 18 126 20 128 1 2 39 -35 85 -80 193 -193 576 -429 842
-521 86 -29 102 -31 232 -32 130 0 145 2 205 27 50 20 88 28 165 32 198 10
643 98 916 180 341 102 581 227 878 453 491 375 910 874 1060 1263 35 90 69
243 82 371 11 103 15 118 29 114 28 -9 135 52 184 105 85 91 121 205 120 380
-1 136 -25 241 -84 368 -74 157 -141 222 -213 206 -51 -11 -243 -114 -212
-114 6 0 46 11 90 25 114 36 139 34 168 -12 59 -93 114 -283 124 -428 12 -165
-37 -310 -139 -414 l-53 -54 -3 77 c-2 58 -6 76 -17 76 -28 0 -41 -38 -91
-265 -47 -216 -76 -310 -138 -440 -253 -531 -900 -1165 -1481 -1450 -174 -85
-330 -143 -575 -213 -151 -43 -593 -152 -617 -152 -4 0 24 33 63 74 144 149
305 434 427 756 253 668 360 1387 344 2325 -11 646 -77 1068 -236 1513 -170
476 -518 1115 -748 1371 l-57 64 194 -6 c554 -19 975 -180 1309 -501 274 -265
602 -766 927 -1416 343 -688 436 -1025 436 -1582 0 -185 3 -238 13 -238 22 0
35 26 52 106 24 116 24 557 0 709 -51 320 -167 636 -407 1110 -288 570 -577
1021 -837 1310 -298 331 -663 520 -1121 580 -192 25 -535 14 -588 -20 -18 -12
-26 -10 -65 15 -50 33 -143 60 -204 60 -78 -1 -181 -29 -313 -87 -10 -4 -12 5
-7 43 10 85 122 1171 169 1640 137 1359 245 2721 386 4829 65 976 94 1577 105
2155 3 162 10 332 17 377 9 64 8 91 -2 127 -7 25 -17 46 -22 46 -5 0 -22 15
-37 33 -60 68 -266 199 -480 306 -379 190 -958 386 -1476 500 -625 138 -1241
220 -1890 251 -913 44 -2484 -45 -3390 -191 -626 -101 -1317 -285 -1775 -473
-74 -30 -137 -52 -140 -47 -43 63 -368 467 -493 614 -112 131 -130 147 -167
147 -11 0 -31 7 -44 15 -12 8 -88 26 -167 40 -206 34 -310 58 -556 126 -531
147 -622 172 -742 199 -324 75 -548 100 -861 99 -124 -1 -261 -6 -305 -11z
m811 -227 c61 -11 226 -50 365 -86 830 -213 1013 -257 1184 -289 105 -20 212
-36 238 -36 67 0 57 -22 -14 -33 -75 -12 -232 -2 -374 23 -123 21 -515 116
-990 240 -457 119 -492 124 -1012 143 -99 4 -153 20 -153 47 0 13 141 18 415
15 182 -3 253 -7 341 -24z m7689 -391 c632 -21 1068 -64 1653 -165 448 -78
783 -159 1147 -280 525 -173 897 -347 1110 -516 90 -71 98 -90 56 -133 -182
-188 -1104 -473 -2059 -636 -95 -17 -194 -30 -220 -29 -63 0 -283 45 -257 51
14 4 10 6 -12 7 -70 2 -36 -18 65 -38 127 -27 145 -31 139 -37 -9 -9 -505 -73
-757 -98 -367 -37 -1129 -86 -1330 -86 -58 0 -60 1 -80 38 l-20 37 6 -36 6
-36 -123 -6 c-149 -8 -514 -7 -550 2 l-25 6 37 135 c26 97 41 136 53 138 21 4
21 22 0 22 -10 0 -14 6 -11 18 3 9 15 59 27 110 16 65 33 109 56 143 55 80 41
94 -30 29 -49 -46 -90 -127 -114 -230 l-16 -70 -36 0 c-52 0 -110 -11 -105
-20 3 -4 34 -5 70 -2 36 2 65 3 65 0 0 -2 -9 -44 -19 -93 -10 -50 -22 -112
-26 -138 l-6 -48 -41 3 -40 3 -3 90 c-2 54 -20 172 -45 290 -32 161 -49 218
-84 295 -24 52 -49 109 -56 127 -27 72 -102 99 -207 74 -26 -6 -109 -17 -183
-25 -281 -30 -498 -58 -585 -76 -200 -42 -295 -65 -295 -73 0 -9 9 -8 235 28
176 29 441 49 895 68 42 2 46 0 60 -32 8 -19 37 -77 63 -129 70 -137 177 -525
177 -641 0 -8 -687 32 -1010 60 -236 19 -662 64 -712 75 -24 5 -27 11 -38 76
-18 103 -10 346 12 380 16 25 164 90 268 118 44 12 51 25 18 33 -21 6 -279
-46 -302 -60 -6 -4 -20 -8 -30 -9 -34 -2 -159 -144 -203 -231 -41 -78 -83
-190 -83 -218 0 -42 32 -2 88 111 35 69 84 154 110 188 l48 61 -4 -95 c-5
-104 16 -233 48 -308 l19 -42 -37 5 c-20 3 -165 24 -322 46 -395 55 -1104 172
-1118 184 -1 1 -27 99 -57 218 -68 271 -104 346 -237 503 -51 60 -99 117 -106
126 -11 14 -1 21 95 58 500 197 1099 356 1728 460 656 109 1869 207 2745 223
74 2 146 4 160 5 14 1 165 -3 335 -8z m-5778 -183 c12 -7 75 -58 141 -114 129
-111 213 -208 509 -598 87 -115 196 -258 241 -317 95 -123 109 -165 40 -120
-35 22 -137 147 -344 422 -93 124 -213 279 -265 345 -104 131 -278 301 -349
342 -25 15 -47 28 -49 29 -1 2 0 7 4 13 8 14 45 13 72 -2z m528 -1219 c9 -16
12 -28 6 -28 -5 0 -46 16 -91 35 -173 72 -300 182 -300 259 0 16 10 44 22 64
l21 35 163 -169 c89 -93 169 -181 179 -196z m9201 206 c-41 -36 -176 -103
-328 -165 -59 -23 -106 -44 -104 -46 5 -5 232 74 299 104 31 14 59 24 62 22 9
-9 -36 -908 -51 -1015 l-6 -40 -57 56 c-179 175 -573 285 -1566 435 -165 25
-304 47 -309 48 -5 2 98 25 230 51 589 119 1198 294 1538 443 110 48 225 116
278 162 l43 39 3 -32 c3 -25 -3 -37 -32 -62z m-1 -406 c-45 -639 -83 -1124
-155 -1968 -39 -448 -120 -1411 -180 -2140 -156 -1882 -194 -2292 -315 -3460
-107 -1037 -125 -1259 -146 -1820 -7 -183 -8 -401 -4 -545 4 -132 7 -253 6
-270 -1 -16 -55 -334 -121 -706 -145 -827 -246 -1424 -344 -2049 -144 -919
-169 -1097 -186 -1320 -14 -191 -31 -303 -52 -344 -93 -182 -514 -333 -1312
-471 -518 -89 -984 -143 -1533 -176 -289 -17 -940 -7 -1218 20 -534 51 -1046
125 -1520 217 -173 34 -476 103 -484 110 -2 2 23 39 56 81 33 43 83 113 112
156 38 57 57 77 69 73 430 -127 1132 -265 1632 -320 814 -91 1674 -80 2350 30
297 48 636 141 970 266 224 83 561 242 642 302 40 30 47 41 52 78 2 24 11 95
20 158 8 63 29 237 46 385 39 344 66 517 200 1295 210 1221 258 1527 305 1955
32 292 55 566 54 630 -1 48 -1 49 -9 15 -5 -19 -27 -179 -50 -355 -70 -542
-127 -889 -275 -1680 -232 -1244 -309 -1751 -321 -2113 -9 -277 -10 -296 -25
-301 -7 -2 -22 -13 -33 -23 -11 -10 -72 -45 -136 -77 -477 -242 -1129 -432
-1705 -495 -246 -27 -411 -36 -780 -43 -784 -13 -1379 41 -2175 198 -183 36
-719 165 -729 175 -2 2 14 43 36 91 87 187 135 359 170 608 26 187 26 760 0
955 -67 493 -196 890 -467 1432 -247 492 -423 746 -756 1088 l-141 145 -52
170 c-57 187 -84 255 -100 255 -6 0 -11 -10 -11 -22 0 -17 51 -223 77 -312 3
-11 -33 14 -88 60 -52 44 -109 91 -127 105 -33 25 -34 27 -53 169 -55 406
-131 1257 -224 2485 -82 1089 -166 2252 -163 2275 2 14 34 -346 71 -800 156
-1884 199 -2303 292 -2852 86 -507 104 -619 114 -708 18 -146 21 -160 36 -160
40 0 27 194 -46 695 -133 909 -158 1131 -259 2360 -59 715 -79 950 -200 2305
-153 1725 -270 3121 -270 3218 l0 41 78 -42 c42 -23 145 -65 227 -93 l150 -52
42 -148 c83 -292 153 -480 193 -519 35 -34 34 -37 -65 -169 -36 -49 -87 -132
-112 -184 -40 -82 -47 -106 -51 -171 l-4 -76 47 -70 c62 -94 98 -130 157 -155
63 -27 72 -20 16 13 -59 35 -81 60 -128 152 -35 68 -41 86 -35 120 8 52 103
231 172 323 30 39 78 110 106 157 93 153 289 455 303 466 16 13 19 65 4 74 -6
3 -10 17 -10 31 0 20 4 24 18 20 30 -10 316 -53 657 -101 182 -25 391 -54 465
-65 451 -66 1453 -175 1885 -205 999 -69 2262 -59 3030 25 399 44 990 146
1007 173 4 7 8 23 8 36 0 17 -4 22 -15 17 -71 -27 -533 -105 -865 -145 -468
-57 -1024 -91 -1516 -91 l-261 0 18 38 c11 22 24 92 33 177 9 77 18 154 20
170 8 54 -33 -50 -69 -177 -36 -122 -44 -175 -31 -196 5 -9 -45 -12 -221 -12
-236 0 -891 26 -978 39 l-50 7 30 16 c17 8 52 20 79 27 27 7 66 21 87 31 54
28 106 25 222 -14 56 -18 122 -37 147 -41 25 -4 51 -12 58 -18 7 -5 15 -7 18
-4 12 12 -6 37 -33 48 -15 6 -79 36 -141 67 -105 51 -119 55 -185 55 -67 1
-78 -2 -162 -48 -49 -26 -108 -65 -130 -86 l-40 -38 -110 10 c-440 38 -1132
110 -1430 148 -278 37 -1049 142 -1145 157 -147 23 -393 64 -411 70 -10 3 -28
38 -46 86 -31 88 -53 113 -78 88 -13 -14 -13 -23 4 -85 11 -38 19 -70 18 -71
-5 -3 -206 39 -343 71 l-152 36 -11 44 c-6 24 -16 47 -22 51 -7 4 -9 0 -6 -12
17 -61 17 -74 2 -74 -32 0 -255 80 -330 118 -118 61 -125 68 -128 132 l-2 55
92 46 c94 47 265 108 316 112 27 2 29 -2 56 -83 34 -103 62 -159 79 -160 6 0
12 -7 12 -15 0 -26 33 -33 180 -34 79 -1 146 -4 149 -7 2 -2 -59 -4 -135 -4
-206 0 -308 23 -317 72 -3 20 -4 21 -11 5 -38 -84 118 -147 361 -147 108 0
138 -3 150 -15 12 -12 18 -13 29 -4 8 6 14 17 14 25 0 7 9 15 19 19 33 10 71
46 71 66 0 23 -8 24 -49 3 -17 -9 -38 -14 -45 -11 -7 3 -19 34 -25 69 -7 34
-15 70 -17 78 -3 11 -37 22 -119 38 -143 28 -252 63 -333 108 -34 19 -70 34
-80 34 -29 0 -276 -87 -341 -119 -44 -23 -63 -28 -65 -19 -2 7 -9 90 -15 183
-16 238 -41 656 -41 678 0 16 5 15 43 -8 60 -38 157 -82 256 -117 47 -17 89
-35 93 -42 11 -16 10 -38 -2 -31 -18 11 -10 -64 21 -195 17 -71 36 -133 42
-138 31 -25 367 -109 457 -113 19 -2 96 10 170 24 160 31 618 108 848 142
l162 24 198 -24 c836 -101 1621 -146 2412 -137 l365 4 32 -70 c35 -75 113
-179 168 -225 28 -23 43 -28 75 -25 l41 3 -88 70 c-65 52 -101 91 -140 149
-29 44 -53 85 -53 91 0 9 53 14 188 19 622 23 1396 99 1941 192 79 13 157 24
173 24 37 0 632 -99 904 -150 309 -58 461 -95 624 -149 362 -121 501 -243 431
-379 -24 -46 -58 -79 -141 -132 -131 -84 -388 -189 -650 -265 -96 -28 -110
-36 -110 -67 0 -26 18 -23 170 23 329 99 598 226 713 337 l47 46 0 -42 c0 -81
-58 -734 -121 -1352 -123 -1218 -293 -2649 -584 -4895 -183 -1411 -225 -1804
-225 -2086 0 -99 3 -119 15 -119 8 0 15 2 15 5 0 3 11 112 25 243 41 387 89
768 285 2272 230 1764 422 3409 529 4535 107 1118 169 2101 159 2521 l-5 200
36 21 c20 12 37 20 39 18 2 -2 -8 -171 -23 -377z m-9551 -44 c7 -279 15 -437
51 -979 38 -559 38 -602 0 -235 -64 625 -153 1437 -171 1553 l-6 37 60 -62 59
-63 7 -251z m765 182 c16 -58 19 -82 11 -90 -16 -16 -37 15 -49 76 -13 57 -14
92 -4 102 12 11 20 -7 42 -88z m382 -275 c134 -23 379 -61 544 -85 177 -25
290 -46 275 -49 -14 -4 -160 -27 -325 -52 -165 -26 -387 -62 -494 -81 -107
-19 -195 -33 -197 -32 -1 2 -18 69 -38 149 -39 158 -44 204 -22 196 7 -3 123
-24 257 -46z m-461 -51 c11 -21 4 -110 -9 -110 -10 0 -41 56 -41 75 0 21 18
55 30 55 5 0 14 -9 20 -20z m70 -982 l55 -12 -55 -7 c-39 -4 -61 -2 -77 8 -30
18 -30 37 0 29 12 -3 47 -11 77 -18z m353 -75 c4 -2 7 -11 7 -19 0 -19 -7 -17
-60 12 l-45 25 45 -7 c25 -3 48 -8 53 -11z m-150 -60 c27 -8 46 -17 43 -20 -6
-6 -146 35 -146 42 0 7 40 -2 103 -22z m-866 -370 c-2 -16 -4 -3 -4 27 0 30 2
43 4 28 2 -16 2 -40 0 -55z m10 -105 c-3 -7 -5 -2 -5 12 0 14 2 19 5 13 2 -7
2 -19 0 -25z m230 -2900 c-3 -8 -6 -5 -6 6 -1 11 2 17 5 13 3 -3 4 -12 1 -19z
m10 -145 c-2 -16 -4 -5 -4 22 0 28 2 40 4 28 2 -13 2 -35 0 -50z m10 -135 c-2
-18 -4 -6 -4 27 0 33 2 48 4 33 2 -15 2 -42 0 -60z m9066 -3642 c243 -118 733
-1001 922 -1662 102 -354 142 -677 152 -1234 20 -1129 -128 -1972 -471 -2675
-168 -345 -355 -551 -541 -600 -134 -34 -301 -2 -523 101 -232 108 -590 340
-695 451 l-27 29 16 120 c9 65 18 124 19 131 2 6 23 -8 47 -32 33 -32 60 -48
113 -65 88 -27 224 -37 294 -20 61 14 125 67 115 95 -6 14 -17 16 -88 10 -88
-7 -213 6 -289 31 -29 10 -65 33 -93 61 -31 30 -52 43 -65 40 -15 -4 -17 0
-14 22 3 14 39 249 80 521 42 272 77 500 79 505 5 16 15 -98 22 -252 3 -77 10
-156 15 -175 6 -22 7 0 4 67 -3 55 -8 170 -12 255 -3 85 -9 157 -13 160 -4 3
26 214 66 470 40 256 88 562 105 680 18 118 34 216 35 218 1 2 17 -6 35 -17
42 -26 97 -28 106 -4 5 11 -5 26 -31 49 -42 37 -52 65 -62 189 -4 62 1 127 25
290 16 116 40 293 51 395 12 102 26 194 30 205 5 11 11 28 14 38 3 9 17 201
31 425 30 470 49 710 59 719 3 4 40 1 80 -5 145 -22 264 -89 306 -171 10 -21
30 -77 43 -125 14 -49 30 -93 35 -98 34 -34 68 50 59 146 -18 197 -196 336
-434 336 l-83 0 0 38 c1 69 28 294 36 302 12 11 129 47 189 59 88 17 196 8
258 -23z"/>
<path d="M10360 17129 c-60 -27 -194 -125 -310 -227 -94 -82 -230 -180 -365
-262 -100 -61 -172 -117 -195 -155 -11 -18 -20 -34 -20 -37 0 -2 24 19 53 46
29 28 97 76 152 105 177 97 327 191 420 264 50 40 135 99 190 132 96 59 101
60 169 60 93 -1 135 -23 250 -132 49 -47 144 -128 210 -181 67 -53 148 -121
181 -150 33 -30 119 -93 190 -140 72 -47 157 -106 190 -131 73 -56 304 -205
310 -200 2 2 -49 45 -113 94 -64 50 -150 120 -192 156 -41 36 -111 92 -155
124 -44 32 -127 104 -185 159 -58 56 -146 134 -195 175 -50 41 -128 111 -175
156 -94 90 -148 125 -229 149 -73 21 -127 20 -181 -5z"/>
<path d="M10200 16702 c-188 -110 -290 -213 -290 -293 0 -31 15 -60 80 -156
44 -65 94 -134 111 -153 37 -42 37 -43 -73 140 -51 83 -88 155 -88 170 0 61
109 180 250 272 41 27 77 51 79 54 11 11 -10 1 -69 -34z"/>
<path d="M9499 16275 c24 -44 220 -326 247 -356 21 -23 37 -15 28 14 -10 34
-55 95 -171 234 -127 154 -132 159 -104 108z"/>
<path d="M7990 16259 c-130 -15 -253 -59 -319 -115 -42 -35 -33 -42 14 -10 99
68 212 89 480 90 l210 1 50 -37 c28 -21 73 -64 100 -97 28 -34 58 -61 68 -61
15 0 8 15 -34 75 -55 81 -115 140 -155 155 -30 12 -309 11 -414 -1z"/>
<path d="M11973 16043 c9 -2 23 -2 30 0 6 3 -1 5 -18 5 -16 0 -22 -2 -12 -5z"/>
<path d="M6951 15832 c-5 -10 -37 -30 -70 -46 -69 -32 -107 -71 -117 -120 -10
-55 -3 -71 34 -74 32 -3 32 -3 32 43 0 43 2 47 47 78 69 46 113 92 113 116 0
26 -26 28 -39 3z"/>
<path d="M11811 15813 c-5 -21 -17 -119 -25 -218 -9 -99 -20 -193 -24 -209 -6
-23 -30 -40 -136 -100 -186 -102 -257 -174 -281 -283 -5 -25 -12 -33 -28 -34
-15 0 -17 -2 -7 -6 8 -3 20 -10 27 -15 15 -12 147 -23 238 -20 39 1 189 15
335 31 146 16 292 32 325 35 100 10 705 7 775 -4 179 -27 187 3 9 37 -113 21
-150 23 -429 23 -338 0 -372 -3 -746 -60 -244 -37 -396 -49 -451 -34 l-22 6
19 38 c31 61 92 105 299 216 210 113 245 137 410 283 59 53 138 116 174 141
64 43 79 60 56 60 -24 0 -171 -86 -260 -152 -77 -57 -202 -138 -213 -138 -1 0
2 35 6 78 9 78 3 258 -10 321 -10 48 -29 50 -41 4z"/>
<path d="M11320 15722 c-47 -48 -143 -151 -213 -230 l-128 -142 44 0 44 0 173
218 c96 119 178 223 183 230 6 8 5 12 -4 12 -8 0 -52 -39 -99 -88z"/>
<path d="M12376 15772 c-4 -7 15 -15 51 -22 112 -22 191 -50 252 -91 70 -47
195 -188 286 -324 33 -49 89 -119 125 -155 l65 -65 3 53 c3 51 2 54 -91 190
-225 327 -331 405 -571 418 -76 5 -115 3 -120 -4z"/>
<path d="M7331 15709 c5 -23 20 -71 32 -108 21 -62 24 -66 54 -69 l32 -3 -46
98 c-25 54 -50 104 -56 111 -18 23 -25 12 -16 -29z"/>
<path d="M9235 15550 c-3 -5 -1 -37 6 -70 11 -57 13 -60 40 -60 35 0 36 10 8
84 -20 52 -40 69 -54 46z"/>
<path d="M9716 15503 c-10 -72 -8 -93 9 -93 12 0 15 14 15 64 0 77 -15 95 -24
29z"/>
<path d="M8986 15490 c-11 -25 -21 -48 -24 -52 -2 -5 3 -8 11 -8 17 0 41 59
35 87 -2 11 -10 2 -22 -27z"/>
<path d="M10866 15441 c-56 -56 -65 -69 -50 -75 11 -4 27 3 47 21 34 32 87
102 87 115 0 18 -19 5 -84 -61z"/>
<path d="M8861 15470 c0 -8 4 -22 9 -30 12 -18 12 -2 0 25 -6 13 -9 15 -9 5z"/>
<path d="M6374 15217 c-22 -18 -35 -44 -48 -89 -9 -35 -31 -87 -47 -117 -17
-29 -28 -56 -25 -59 13 -13 70 58 108 133 22 44 42 82 44 84 1 2 30 -13 63
-33 77 -47 283 -125 661 -249 235 -76 322 -101 378 -105 77 -5 101 10 35 23
-42 7 -172 56 -368 138 -71 29 -229 91 -350 137 -121 45 -251 97 -290 116
-100 48 -125 51 -161 21z"/>
<path d="M7511 15234 c30 -68 204 -368 224 -384 16 -14 35 -5 35 15 0 50 -160
365 -185 365 -7 0 -27 3 -45 7 -18 3 -31 2 -29 -3z"/>
<path d="M10804 15190 c-38 -4 -89 -17 -112 -29 -46 -24 -83 -27 -115 -9 -21
11 -126 12 -137 1 -9 -9 74 -72 117 -89 65 -25 120 -15 213 41 91 56 142 95
120 93 -8 0 -47 -4 -86 -8z"/>
<path d="M8385 15150 c43 -11 163 -12 169 -1 4 5 -38 9 -97 9 -67 0 -92 -3
-72 -8z"/>
<path d="M8935 15043 c9 -131 -2 -161 -76 -196 -43 -20 -50 -27 -36 -33 27
-10 90 12 120 42 33 33 42 91 31 197 -8 68 -12 82 -28 85 -17 4 -18 -2 -11
-95z"/>
<path d="M9755 15129 c-4 -5 8 -35 26 -64 38 -63 124 -152 132 -137 4 5 -16
45 -42 88 -69 113 -99 142 -116 113z"/>
<path d="M10120 15105 c85 -19 171 -34 190 -33 19 0 26 2 15 5 -11 2 -74 18
-140 34 -66 16 -143 29 -170 28 -41 -1 -22 -7 105 -34z"/>
<path d="M9321 15118 c0 -7 17 -85 38 -173 27 -115 41 -160 52 -160 11 0 14
22 13 121 -1 66 -7 144 -14 172 -12 52 -12 52 -51 52 -25 0 -39 -5 -38 -12z"/>
<path d="M13377 15064 c-17 -18 -4 -46 35 -74 40 -29 68 -38 68 -22 0 14 -96
103 -103 96z"/>
<path d="M11025 14921 c-11 -5 -31 -21 -45 -36 -21 -23 -25 -36 -25 -93 0 -53
3 -67 15 -67 9 0 18 15 23 40 17 83 21 90 64 110 26 12 42 26 40 35 -3 17 -43
23 -72 11z"/>
<path d="M13457 14760 c28 -11 39 -33 47 -95 13 -90 37 -168 82 -267 53 -115
70 -191 60 -272 -7 -54 -12 -64 -72 -127 -48 -51 -76 -93 -108 -163 -55 -118
-115 -222 -178 -308 -48 -66 -49 -68 -46 -133 l3 -66 76 88 c88 102 138 181
222 348 40 81 77 139 113 178 60 65 74 102 74 199 0 91 -27 170 -95 280 -60
96 -85 156 -104 250 -13 62 -41 98 -74 97 l-22 0 22 -9z"/>
<path d="M6633 14621 c-23 -11 -50 -32 -60 -47 -17 -27 -66 -204 -58 -212 2
-2 15 35 30 82 16 54 37 99 54 118 25 28 36 32 93 36 64 4 67 3 205 -67 77
-40 149 -81 159 -92 17 -19 19 -38 18 -148 0 -141 12 -119 22 39 8 134 5 138
-185 234 -167 84 -202 91 -278 57z"/>
<path d="M7725 14620 c-9 -15 36 -88 79 -129 21 -21 36 -45 36 -58 0 -29 21
-38 49 -23 29 15 28 71 -1 111 -29 38 -120 109 -141 109 -9 0 -19 -5 -22 -10z"/>
<path d="M6044 14398 c-48 -84 -113 -206 -144 -271 l-57 -118 -18 61 c-25 81
-40 89 -31 17 8 -74 61 -334 75 -369 6 -16 16 -28 22 -28 12 0 11 19 -7 128
l-7 42 132 -54 c73 -30 220 -104 329 -164 358 -199 399 -215 547 -214 50 1
102 6 116 11 18 7 -3 10 -84 10 -162 1 -205 19 -537 216 -184 110 -237 137
-392 200 -79 32 -119 54 -123 66 -9 28 75 231 182 437 52 100 92 182 90 182
-3 0 -45 -69 -93 -152z"/>
<path d="M7985 14479 c14 -18 37 -53 50 -79 43 -85 128 -313 133 -356 14 -130
-284 -655 -543 -954 -146 -169 -183 -221 -279 -394 -120 -215 -81 -193 84 49
51 74 135 180 197 245 208 221 289 321 393 481 l42 64 -7 -65 c-3 -36 -22
-191 -40 -345 -46 -372 -57 -497 -49 -554 4 -35 2 -57 -10 -79 -20 -38 -21
-92 -2 -136 13 -31 33 -53 41 -45 2 2 0 24 -5 48 -14 80 2 103 180 246 155
125 212 187 235 255 9 30 42 107 72 170 37 78 64 154 83 235 28 117 81 278
134 402 14 35 35 101 46 147 11 48 41 130 70 188 41 83 50 112 50 155 0 41 8
67 40 128 29 56 40 88 40 120 0 54 -16 59 -26 10 -3 -20 -30 -71 -59 -115 -38
-56 -54 -92 -59 -127 -4 -29 -18 -66 -37 -93 -53 -79 -86 -153 -104 -235 -9
-44 -33 -117 -51 -162 -45 -109 -89 -284 -104 -413 -6 -58 -21 -130 -32 -160
-60 -161 -88 -247 -88 -267 0 -13 -5 -23 -11 -23 -13 0 -189 -123 -281 -197
-45 -35 -68 -49 -68 -38 0 24 38 349 66 570 14 110 28 267 30 349 l5 148 43
87 c111 220 112 278 11 463 -107 194 -147 261 -171 285 -35 34 -50 28 -19 -8z"/>
<path d="M12998 14397 c-53 -51 -120 -128 -150 -172 -81 -121 -226 -293 -261
-312 -22 -12 -66 -18 -145 -21 -97 -4 -112 -7 -100 -18 8 -9 57 -19 124 -25
105 -11 112 -11 162 11 69 30 185 153 291 310 44 64 100 139 127 169 39 43 49
62 54 102 4 27 4 49 1 49 -3 0 -49 -42 -103 -93z"/>
<path d="M10289 14425 c40 -14 80 -25 87 -25 7 0 66 -18 131 -40 65 -23 154
-45 197 -51 86 -11 136 -31 136 -55 0 -8 -12 -38 -26 -66 -19 -38 -28 -77 -35
-152 -14 -140 -34 -224 -86 -345 -59 -140 -103 -273 -153 -471 -24 -91 -71
-240 -106 -331 -42 -110 -72 -208 -88 -291 -26 -130 -52 -210 -86 -265 -23
-38 -44 -41 -142 -18 -35 8 -122 21 -193 29 -125 14 -205 36 -319 85 -27 12
-165 44 -305 72 -490 96 -487 95 -679 244 -68 53 -121 92 -118 86 3 -5 60 -54
125 -109 140 -117 210 -154 359 -189 467 -110 548 -132 656 -183 105 -50 146
-61 321 -90 103 -16 225 -53 225 -67 0 -22 -49 -45 -158 -75 -141 -39 -268
-101 -369 -182 l-83 -66 -172 40 c-95 22 -252 67 -348 101 -535 186 -623 213
-780 238 -79 13 -220 14 -220 3 0 -5 38 -14 84 -21 125 -17 310 -71 522 -151
381 -145 429 -162 543 -194 64 -18 146 -39 183 -46 l66 -12 -71 -36 c-80 -41
-178 -127 -197 -171 l-11 -29 -45 25 c-57 32 -123 50 -254 68 -151 22 -186 37
-341 141 -143 96 -183 114 -256 114 -53 0 -56 -15 -6 -25 58 -11 99 -36 221
-134 61 -50 130 -100 152 -111 55 -28 147 -47 265 -55 91 -6 232 -29 242 -39
2 -2 -3 -32 -13 -67 -22 -85 -14 -193 25 -325 35 -119 39 -163 51 -569 7 -226
14 -332 26 -388 9 -42 20 -77 23 -77 7 0 16 444 16 760 0 200 -1 207 -30 300
-26 84 -30 109 -30 215 0 135 17 190 78 253 81 85 224 165 252 142 10 -8 32 1
88 38 115 75 262 147 362 177 145 44 225 95 225 142 0 8 15 20 34 28 82 35
137 150 181 383 9 46 34 134 56 195 92 252 110 310 155 487 25 101 72 259 104
351 64 182 80 263 80 394 0 75 4 96 31 156 23 55 28 76 21 97 -17 51 -85 81
-184 82 -27 0 -108 15 -180 34 -120 30 -218 52 -288 63 -14 2 8 -8 49 -22z"/>
<path d="M11467 14400 c31 -53 106 -117 188 -160 53 -27 115 -74 185 -136 58
-53 159 -132 225 -177 66 -45 148 -109 182 -142 l63 -60 17 -115 c12 -82 17
-174 16 -320 -1 -191 1 -214 27 -335 29 -131 65 -375 58 -394 -5 -15 -98 47
-343 229 -197 146 -242 184 -430 374 -115 116 -248 241 -294 276 -46 36 -156
122 -245 192 -110 88 -163 125 -171 117 -10 -10 107 -129 385 -394 64 -61 194
-192 290 -291 96 -100 189 -192 207 -205 l32 -24 -50 -74 c-94 -143 -112 -153
-249 -141 -133 12 -258 29 -302 41 -20 5 -114 25 -208 44 -95 19 -213 48 -264
64 -102 32 -205 55 -213 48 -11 -12 9 -26 59 -43 29 -9 95 -36 148 -59 101
-45 395 -140 495 -160 197 -41 362 -43 434 -6 54 28 75 56 125 164 25 53 47
97 50 97 2 0 54 -36 115 -79 279 -200 480 -288 574 -252 41 16 33 30 -20 33
l-48 3 61 37 c82 50 196 174 334 363 86 117 120 185 120 240 l-1 50 -19 -23
c-11 -13 -38 -58 -61 -100 -73 -132 -240 -374 -313 -450 -46 -48 -124 -102
-149 -102 -21 0 -24 14 -36 205 -6 88 -18 207 -26 264 -14 94 -14 116 -1 215
30 226 27 382 -10 522 -20 75 -122 168 -285 262 -68 39 -162 99 -208 134 -144
108 -154 114 -236 147 -82 33 -176 96 -195 131 -6 11 -15 20 -21 20 -6 0 -2
-13 8 -30z"/>
<path d="M11008 14398 c-16 -28 -17 -566 -2 -612 14 -40 31 -44 46 -9 14 32
19 568 5 616 -9 33 -32 35 -49 5z"/>
<path d="M8423 14377 c-51 -11 -93 -23 -93 -27 0 -4 16 -11 35 -14 61 -12 225
27 225 53 0 16 -62 11 -167 -12z"/>
<path d="M6170 14368 c0 -9 5 -29 11 -45 6 -15 15 -66 20 -112 8 -77 88 -380
111 -425 19 -36 27 1 18 94 -5 52 -17 120 -28 151 -11 31 -30 99 -42 152 -15
65 -33 114 -56 149 -18 29 -34 45 -34 36z"/>
<path d="M7811 14344 c-6 -14 -42 -55 -80 -90 -38 -36 -93 -100 -122 -142 -29
-42 -83 -116 -120 -163 -71 -89 -277 -449 -304 -529 -8 -25 -22 -83 -30 -128
-26 -150 -57 -193 -154 -208 -65 -10 -59 -24 11 -24 112 0 158 46 212 215 20
61 57 146 82 190 25 44 77 136 115 204 38 68 93 158 122 200 30 42 78 122 107
179 29 56 78 132 108 168 49 60 82 117 82 144 0 19 -17 10 -29 -16z"/>
<path d="M9092 13892 c-119 -369 -148 -472 -157 -555 -4 -38 17 14 80 198 172
502 229 705 199 705 -5 0 -60 -156 -122 -348z"/>
<path d="M7061 14144 c0 -11 3 -14 6 -6 3 7 2 16 -1 19 -3 4 -6 -2 -5 -13z"/>
<path d="M7938 14025 c-6 -140 -29 -212 -125 -397 -89 -171 -174 -301 -331
-510 -79 -105 -141 -192 -139 -194 5 -5 78 78 174 196 191 235 363 531 413
712 24 88 34 207 22 268 -7 39 -9 30 -14 -75z"/>
<path d="M9971 14010 c184 -38 237 -86 275 -247 20 -83 14 -184 -15 -267 -12
-33 -21 -64 -21 -70 1 -22 40 37 60 92 29 77 25 228 -10 316 -44 114 -112 161
-267 185 -108 17 -119 12 -22 -9z"/>
<path d="M5411 13659 c6 -13 26 -46 44 -74 50 -78 104 -190 147 -305 68 -180
89 -204 203 -228 73 -16 131 -42 115 -52 -27 -16 26 -222 76 -295 31 -47 27
-71 -24 -122 -58 -60 -222 -182 -334 -251 -121 -73 -173 -120 -202 -182 -18
-40 -20 -60 -18 -194 3 -188 11 -211 111 -290 39 -32 90 -80 112 -109 42 -52
82 -87 132 -113 41 -22 33 -9 -18 27 -25 18 -60 55 -77 83 -18 28 -67 88 -109
133 -55 58 -80 91 -84 116 -4 19 -2 89 4 155 14 166 39 212 156 278 91 51 169
107 240 172 156 144 159 147 189 226 33 87 82 161 123 187 28 18 30 18 88 -10
33 -16 102 -40 152 -55 86 -24 202 -70 365 -145 36 -17 93 -53 126 -80 124
-104 170 -115 228 -57 19 19 34 42 34 51 0 12 -10 6 -34 -19 -55 -58 -81 -52
-178 43 -72 71 -99 89 -252 170 -94 49 -205 101 -246 114 -142 48 -183 66
-265 121 -141 96 -332 176 -418 176 -63 0 -80 20 -169 202 -53 108 -108 204
-147 255 -63 84 -93 114 -70 72z m621 -695 c28 -14 75 -42 104 -61 l52 -34
-62 -62 c-33 -34 -62 -59 -64 -54 -2 4 -10 7 -18 7 -8 0 -23 32 -39 88 -15 48
-30 99 -35 115 -11 34 -4 34 62 1z"/>
<path d="M9391 13614 c-36 -158 14 -213 192 -214 48 0 87 4 87 9 0 4 -31 11
-69 14 -91 8 -145 24 -173 54 -21 22 -23 33 -21 109 2 46 1 84 -1 84 -1 0 -8
-25 -15 -56z"/>
<path d="M5758 13503 c-10 -2 -18 -8 -18 -13 0 -9 14 -14 70 -25 51 -11 130
-53 260 -139 136 -91 238 -142 375 -186 55 -17 167 -63 248 -102 151 -72 227
-94 227 -66 0 8 -17 22 -37 32 -21 10 -81 48 -133 86 -136 96 -133 95 -264
140 -66 23 -207 86 -320 144 -229 117 -331 149 -408 129z"/>
<path d="M11264 13385 c-8 -21 7 -64 114 -310 55 -127 115 -250 143 -291 26
-39 54 -88 63 -108 8 -20 19 -36 24 -36 32 0 12 90 -45 204 -19 38 -52 109
-73 158 -36 83 -208 398 -217 398 -2 0 -6 -7 -9 -15z"/>
<path d="M9273 13239 c43 -22 130 -57 193 -79 64 -21 125 -47 136 -57 38 -33
49 -80 55 -231 8 -180 22 -159 25 36 3 128 1 140 -21 178 -29 51 -76 78 -167
98 -39 8 -119 33 -179 55 -60 23 -111 41 -114 41 -3 -1 29 -19 72 -41z"/>
<path d="M7015 13000 c-4 -6 -2 -17 4 -24 6 -7 37 -88 71 -182 60 -170 85
-219 111 -219 60 0 -41 354 -118 414 -28 23 -58 27 -68 11z"/>
<path d="M8950 12960 c55 -46 246 -137 337 -160 85 -21 193 -27 193 -10 0 11
-11 13 -120 30 -101 15 -233 60 -349 120 -81 42 -91 45 -61 20z"/>
<path d="M7457 12616 c-4 -28 -32 -138 -61 -245 -30 -108 -66 -241 -81 -296
-14 -55 -37 -134 -50 -175 -39 -118 -46 -172 -35 -252 12 -81 57 -175 103
-214 75 -63 299 -143 552 -199 94 -20 224 -54 290 -75 66 -21 156 -48 200 -60
50 -13 140 -52 240 -105 168 -88 201 -98 360 -111 63 -5 89 -3 119 10 47 19
44 30 -4 16 -46 -13 -218 14 -286 45 -29 12 -85 45 -125 72 -125 85 -179 111
-376 183 -132 48 -248 82 -379 111 -213 47 -477 134 -530 174 -19 15 -46 45
-60 67 -30 48 -56 159 -48 208 11 65 75 353 130 583 34 141 54 244 52 270 l-3
42 -8 -49z"/>
<path d="M7180 12455 c-15 -18 -4 -37 70 -118 47 -52 90 -74 90 -47 0 18 -99
159 -119 170 -25 13 -26 13 -41 -5z"/>
<path d="M8431 12451 c-53 -14 -28 -26 57 -27 81 -1 105 -7 362 -92 316 -104
519 -163 640 -187 47 -10 97 -24 113 -31 15 -8 27 -10 27 -5 0 25 -63 52 -237
100 -103 29 -298 89 -433 133 -351 113 -445 133 -529 109z"/>
<path d="M10765 12346 c-33 -8 -98 -25 -145 -39 -47 -14 -115 -28 -152 -31
-68 -5 -138 -28 -138 -44 0 -5 21 -6 49 -1 26 4 79 4 117 -1 49 -6 104 -4 189
6 161 21 285 21 435 0 119 -16 136 -16 335 1 172 15 210 21 210 33 0 16 5 15
-290 40 -77 7 -178 18 -225 26 -129 22 -314 26 -385 10z"/>
<path d="M11685 12194 c-42 -22 -42 -24 -2 -17 56 9 85 -3 106 -45 35 -68 44
-148 43 -362 0 -178 -4 -231 -31 -402 -26 -169 -31 -225 -31 -380 0 -110 6
-221 15 -278 30 -192 18 -236 -78 -283 -31 -15 -61 -27 -66 -27 -6 0 -11 -4
-11 -10 0 -5 10 -10 22 -10 l21 0 -23 -25 c-32 -34 -56 -40 -86 -20 -14 9 -53
27 -87 40 -34 13 -88 35 -121 50 -32 14 -118 40 -190 58 -120 29 -144 32 -291
31 -149 0 -170 -3 -310 -37 -204 -49 -279 -60 -420 -61 -134 -1 -183 11 -215
51 -18 23 -20 41 -20 147 0 113 -14 234 -64 546 -8 52 -19 210 -24 350 -5 140
-13 265 -18 277 -14 34 -10 -668 5 -757 6 -41 14 -191 18 -333 7 -294 5 -287
96 -335 48 -24 64 -27 188 -30 169 -5 315 15 465 63 129 40 270 65 374 65 106
0 337 -43 455 -85 173 -61 194 -73 161 -92 -31 -17 -306 -277 -328 -309 -17
-25 -29 -34 -43 -30 -11 2 -72 18 -135 34 -63 16 -146 33 -185 36 -69 7 -787
-33 -985 -54 -193 -21 -378 -8 -501 35 -62 22 -80 19 -48 -8 35 -32 170 -75
292 -93 125 -20 517 -14 924 13 249 16 268 16 408 -1 81 -10 184 -27 228 -37
88 -21 128 -15 147 22 13 24 -3 33 -32 19 -22 -11 16 28 266 269 85 82 125
129 142 165 15 31 37 60 60 76 82 55 78 38 85 443 5 294 10 380 25 457 14 75
18 139 18 310 -1 318 -30 468 -104 542 -41 42 -68 47 -115 22z"/>
<path d="M7838 12027 c-25 -29 -77 -76 -116 -104 l-71 -52 -21 34 c-11 18 -25
53 -29 77 l-9 43 -1 -37 c-1 -21 8 -60 19 -87 l19 -50 -34 -21 c-39 -24 -175
-178 -175 -197 0 -25 29 -13 96 40 38 29 83 63 101 75 l32 23 11 -40 c6 -22
14 -81 19 -131 5 -50 12 -95 17 -100 10 -10 1 176 -11 246 l-7 40 66 54 c37
30 77 68 90 85 26 34 76 129 76 145 0 24 -29 6 -72 -43z"/>
<path d="M11163 11962 c-59 -4 -54 -18 10 -26 148 -20 191 -83 216 -314 5 -46
12 -86 16 -90 25 -25 34 133 14 230 -16 72 -52 142 -89 168 -33 23 -102 37
-167 32z"/>
<path d="M5385 11877 c-15 -76 5 -243 59 -502 19 -88 26 -150 26 -233 0 -65 5
-123 11 -135 7 -12 71 -80 144 -152 93 -92 166 -176 250 -290 133 -180 324
-378 442 -459 48 -33 74 -57 78 -74 4 -16 2 -28 -4 -30 -17 -6 -14 -17 33
-152 24 -69 65 -190 91 -270 26 -80 78 -228 115 -330 93 -254 154 -443 330
-1025 83 -275 187 -612 230 -750 106 -338 132 -431 128 -457 -2 -14 -13 13
-27 65 -16 60 -28 87 -39 87 -26 0 -9 -104 71 -445 142 -602 295 -1423 412
-2215 110 -746 177 -1115 260 -1435 36 -141 106 -361 117 -370 4 -3 278 -52
393 -70 55 -9 122 -19 148 -24 48 -8 49 -8 44 15 -4 22 -1 24 32 25 20 0 56 4
81 9 38 8 33 9 -32 5 -52 -2 -80 0 -85 8 -9 15 -67 257 -218 912 -131 572
-126 551 -200 910 -31 149 -76 365 -101 480 -268 1254 -459 2227 -452 2298 3
32 3 32 36 -25 36 -61 62 -75 62 -34 0 13 -22 85 -49 158 -28 74 -80 247 -116
384 -105 396 -150 539 -267 859 -168 457 -300 872 -357 1117 -32 140 -40 159
-85 206 l-31 33 31 27 c18 15 71 79 120 142 48 63 114 147 146 186 61 74 173
162 268 209 121 61 256 170 315 255 45 65 24 68 -42 7 -78 -71 -114 -93 -238
-148 -129 -56 -256 -142 -333 -223 -34 -36 -109 -138 -167 -226 -58 -88 -110
-162 -114 -165 -5 -2 -14 2 -21 10 -10 12 -17 12 -51 -6 -37 -18 -41 -19 -72
-3 -17 9 -44 25 -59 36 -41 28 -35 2 8 -37 29 -27 32 -34 19 -39 -27 -10 -72
-7 -143 10 -138 32 -138 31 -279 168 -155 149 -250 264 -383 461 -75 112 -121
167 -230 275 l-137 135 -7 84 c-8 104 -18 150 -68 330 -22 80 -50 215 -62 300
-20 134 -24 151 -31 118z m1480 -2234 c37 -92 158 -434 194 -547 16 -50 41
-122 55 -161 31 -82 22 -76 -27 15 -35 64 -75 168 -203 515 -73 201 -84 245
-61 245 9 0 25 -26 42 -67z m834 -3536 c6 -43 11 -92 11 -108 0 -32 -16 -39
-24 -11 -9 29 -36 224 -35 251 1 49 36 -47 48 -132z m-12 -719 c-3 -7 -5 -2
-5 12 0 14 2 19 5 13 2 -7 2 -19 0 -25z m10 -60 c-3 -8 -6 -5 -6 6 -1 11 2 17
5 13 3 -3 4 -12 1 -19z"/>
<path d="M10236 11650 c4 -25 9 -177 13 -337 8 -361 -9 -330 188 -349 83 -8
174 -23 228 -39 123 -36 166 -40 307 -26 116 12 127 11 187 -8 35 -12 80 -21
100 -20 34 0 33 1 -17 15 -29 7 -67 22 -85 31 -26 14 -68 19 -212 24 -157 5
-192 9 -270 33 -58 17 -140 32 -229 40 -82 8 -141 18 -146 25 -4 7 -10 105
-14 218 -7 220 -18 326 -41 395 l-15 43 6 -45z"/>
<path d="M9330 11545 c0 -3 32 -21 72 -40 75 -36 125 -44 146 -23 18 18 15 28
-8 28 -11 0 -43 9 -72 20 -48 18 -138 28 -138 15z"/>
<path d="M5762 11357 c50 -38 188 -218 348 -453 127 -187 156 -213 266 -235
71 -14 80 -22 124 -109 19 -37 25 -69 31 -185 11 -188 54 -324 91 -287 7 7 7
46 -1 134 -23 245 -39 299 -112 381 l-38 44 62 5 c69 6 120 28 183 80 152 124
208 177 273 259 101 127 129 157 176 187 51 32 29 41 -31 12 -28 -14 -86 -64
-152 -132 -59 -61 -134 -128 -167 -151 -33 -22 -87 -61 -121 -88 -101 -78
-114 -83 -224 -76 -101 7 -149 17 -185 41 -13 8 -103 115 -200 237 -201 251
-244 300 -299 341 -55 39 -77 35 -24 -5z"/>
<path d="M9615 10349 c-88 -47 -152 -102 -228 -197 -43 -53 -32 -57 31 -9 31
24 95 68 142 96 92 57 140 97 140 118 0 20 -40 16 -85 -8z"/>
<path d="M11144 10230 c-24 -25 -43 -33 -95 -40 -35 -5 -113 -22 -174 -36
-107 -26 -119 -27 -498 -31 -229 -3 -385 -9 -381 -14 3 -5 49 -9 102 -9 53 0
195 -7 315 -15 254 -18 328 -13 560 39 155 35 182 49 213 109 20 38 -2 36 -42
-3z"/>
<path d="M8868 2673 c6 -2 18 -2 25 0 6 3 1 5 -13 5 -14 0 -19 -2 -12 -5z"/>
<path d="M11365 2584 c57 -14 143 -26 200 -29 l100 -4 -95 10 c-52 5 -132 18
-178 29 -46 11 -93 20 -105 19 -12 0 23 -12 78 -25z"/>
<path d="M7537 2543 c-59 -25 -106 -47 -104 -49 1 -2 61 19 132 46 72 27 119
49 105 49 -14 0 -74 -21 -133 -46z"/>
<path d="M11713 2543 c26 -2 68 -2 95 0 26 2 4 3 -48 3 -52 0 -74 -1 -47 -3z"/>
<path d="M11888 2533 c6 -2 18 -2 25 0 6 3 1 5 -13 5 -14 0 -19 -2 -12 -5z"/>
<path d="M7390 2480 c-8 -5 -10 -10 -5 -10 6 0 17 5 25 10 8 5 11 10 5 10 -5
0 -17 -5 -25 -10z"/>
<path d="M8180 2436 c5 -15 16 -39 24 -55 27 -51 44 -110 39 -134 -7 -35 38
-116 92 -166 107 -99 243 -124 358 -67 80 39 120 94 114 156 -4 37 -32 135
-43 149 -2 2 -43 10 -91 17 -110 18 -302 65 -486 120 -15 5 -16 2 -7 -20z"/>
<path d="M12590 2235 c19 -19 36 -35 39 -35 3 0 -10 16 -29 35 -19 19 -36 35
-39 35 -3 0 10 -16 29 -35z"/>
<path d="M14117 6672 c-21 -24 -149 -272 -191 -369 -131 -306 -236 -757 -236
-1011 0 -83 3 -104 15 -109 9 -3 18 -3 21 -1 2 3 18 77 34 164 67 362 146 637
281 982 95 240 124 342 102 355 -6 4 -17 -1 -26 -11z"/>
<path d="M14360 6672 c0 -4 21 -28 46 -52 25 -25 68 -78 94 -118 94 -140 117
-277 105 -631 -12 -357 -12 -370 5 -381 63 -41 102 93 116 398 10 233 -15 421
-73 542 -46 96 -217 250 -278 250 -8 0 -15 -4 -15 -8z"/>
<path d="M14865 6395 c92 -157 118 -208 146 -280 28 -72 99 -341 146 -550 33
-151 24 -37 -11 136 -65 320 -117 468 -225 636 -59 92 -102 136 -56 58z"/>
<path d="M14448 5893 c-25 -29 -118 -162 -118 -170 0 -6 72 88 119 155 24 35
24 43 -1 15z"/>
<path d="M14279 5349 c-231 -190 -493 -416 -549 -473 -51 -53 -38 -61 39 -22
100 51 374 251 608 446 124 102 148 134 126 169 -23 37 -49 23 -224 -120z"/>
<path d="M14674 5393 c36 -118 40 -152 39 -343 0 -196 -22 -401 -43 -408 -19
-7 -10 -51 14 -67 34 -22 73 -5 92 41 37 87 56 394 34 534 -16 96 -46 181 -81
223 -32 39 -65 51 -55 20z"/>
<path d="M13635 4737 c-26 -40 -35 -87 -35 -177 0 -67 4 -92 20 -117 37 -62
45 -44 45 99 0 73 2 151 5 172 6 47 -11 58 -35 23z"/>
<path d="M14024 4624 c-18 -14 -18 -15 4 -4 12 6 22 13 22 15 0 8 -5 6 -26
-11z"/>
<path d="M13950 4590 c-25 -11 -39 -19 -32 -19 16 -1 82 26 82 33 0 4 -1 6 -2
5 -2 -1 -23 -9 -48 -19z"/>
<path d="M14285 4535 c-372 -49 -598 -90 -592 -108 13 -39 330 -33 690 13 160
20 197 34 197 75 0 52 -33 54 -295 20z"/>
<path d="M14656 4509 c-3 -8 -7 -124 -10 -259 -8 -394 -43 -518 -219 -777 -87
-128 -90 -134 -71 -162 25 -35 54 -26 114 37 111 114 211 295 250 452 40 159
37 495 -5 639 -16 52 -51 94 -59 70z"/>
<path d="M15275 3912 c0 -251 -4 -484 -8 -516 -4 -33 -5 -57 -2 -54 13 12 34
235 40 418 6 189 -7 527 -22 582 -5 15 -8 -178 -8 -430z"/>
<path d="M15144 4069 c0 -292 -10 -425 -64 -825 -20 -149 -24 -191 -15 -182 8
8 33 154 54 313 38 288 54 528 48 730 -9 308 -23 285 -23 -36z"/>
<path d="M13622 4314 c-38 -26 -55 -110 -50 -248 4 -126 16 -166 47 -166 18 0
19 10 17 168 0 108 3 181 11 207 15 46 6 61 -25 39z"/>
<path d="M13931 3986 c6 -6 148 -36 170 -36 6 0 8 4 5 9 -3 4 -29 11 -59 14
-29 4 -69 10 -88 13 -18 4 -31 4 -28 0z"/>
<path d="M13586 3893 c-7 -7 10 -20 189 -143 177 -121 258 -185 379 -298 77
-72 93 -83 120 -80 75 7 28 89 -121 211 -142 116 -542 335 -567 310z"/>
<path d="M13446 3850 c-9 -22 -16 -61 -16 -86 0 -39 3 -46 18 -42 15 4 17 -4
20 -61 3 -81 29 -212 148 -764 104 -486 123 -566 161 -681 35 -108 83 -152 83
-76 0 33 -156 768 -200 944 -17 66 -51 186 -75 266 -91 299 -117 409 -113 477
2 35 0 63 -3 63 -4 0 -14 -18 -23 -40z"/>
<path d="M13925 3874 c46 -35 260 -128 235 -102 -3 3 -61 31 -130 62 -69 31
-116 49 -105 40z"/>
<path d="M13657 3648 c14 -28 381 -433 431 -475 55 -46 107 -83 117 -83 3 0
-56 62 -132 138 -76 75 -203 205 -281 287 -79 83 -139 142 -135 133z"/>
<path d="M13380 3524 c0 -9 9 -66 20 -128 11 -61 34 -189 50 -285 17 -95 35
-181 41 -190 14 -22 10 10 -45 334 -25 148 -46 273 -46 277 0 5 -4 8 -10 8 -5
0 -10 -7 -10 -16z"/>
<path d="M13605 3440 c12 -48 114 -245 145 -280 l32 -35 -23 40 c-12 22 -54
99 -91 170 -38 72 -66 119 -63 105z"/>
<path d="M14416 3271 c-3 -5 -2 -40 4 -78 5 -37 10 -124 10 -193 0 -374 -89
-612 -274 -732 -66 -43 -168 -78 -226 -78 -42 0 -65 -19 -55 -48 10 -32 58
-45 143 -40 144 10 268 81 362 208 90 121 141 269 160 464 17 175 -8 385 -57
469 -19 32 -55 47 -67 28z"/>
<path d="M14769 2293 c-13 -16 -12 -17 4 -4 16 13 21 21 13 21 -2 0 -10 -8
-17 -17z"/>
<path d="M14604 2114 c-233 -245 -396 -372 -535 -415 -66 -21 -235 -26 -319
-9 -25 4 -47 7 -48 5 -11 -10 116 -37 198 -42 110 -6 184 9 278 56 122 61 320
230 445 380 73 86 142 181 134 181 -3 0 -72 -70 -153 -156z"/>
<path d="M14530 1754 c-81 -82 -208 -168 -314 -212 l-81 -33 50 5 c126 15 342
163 399 275 9 17 15 31 13 31 -1 0 -32 -30 -67 -66z"/>
<path d="M15220 7120 c-26 -51 -41 -127 -30 -156 15 -39 116 -58 177 -32 26
11 24 12 -47 22 -41 7 -80 15 -86 19 -16 9 0 91 27 135 16 28 17 37 7 43 -22
14 -27 11 -48 -31z"/>
<path d="M4140 6813 c-426 -45 -678 -116 -1070 -301 -198 -93 -525 -280 -700
-401 -539 -371 -829 -719 -1038 -1246 -123 -309 -219 -708 -253 -1046 -15
-159 -15 -159 -43 -159 -45 0 -185 -47 -241 -81 -152 -91 -261 -299 -239 -454
18 -127 59 -230 140 -351 72 -109 210 -234 259 -234 24 0 18 13 -21 51 -152
144 -294 424 -294 580 0 97 69 230 163 315 54 48 92 71 195 116 l62 27 0 -142
c0 -153 5 -187 25 -187 19 0 23 19 35 170 64 824 297 1505 677 1975 255 316
662 620 1198 896 301 155 539 248 805 314 225 55 523 95 710 95 199 0 462 -67
543 -138 15 -14 17 -14 17 0 0 24 -67 78 -135 108 -174 78 -302 101 -564 98
-108 0 -212 -3 -231 -5z"/>
<path d="M15731 6728 c-19 -54 -14 -106 14 -133 25 -26 50 -31 74 -16 11 7 7
13 -17 25 -42 22 -53 46 -46 99 8 53 -9 71 -25 25z"/>
<path d="M15512 6648 c-15 -20 -31 -85 -25 -107 7 -28 84 -64 112 -53 19 7 15
11 -34 35 -58 28 -61 34 -46 100 10 40 9 43 -7 25z"/>
<path d="M4135 6389 c-294 -24 -495 -81 -800 -228 -427 -206 -803 -462 -1026
-698 -617 -657 -874 -1568 -743 -2633 31 -253 84 -472 156 -640 36 -86 241
-444 274 -480 12 -12 14 -11 14 12 0 14 -46 118 -101 230 -56 111 -119 255
-140 319 -153 458 -180 1199 -63 1769 130 630 457 1188 914 1557 312 251 829
550 1120 647 212 71 478 110 708 104 72 -2 132 0 132 3 0 13 -59 31 -134 40
-92 10 -167 10 -311 -2z"/>
<path d="M16095 6339 c-14 -62 28 -109 97 -109 26 0 29 2 18 15 -7 8 -18 15
-24 15 -26 0 -56 41 -56 75 0 45 -26 47 -35 4z"/>
<path d="M5324 6197 c58 -36 226 -166 320 -247 116 -99 130 -92 19 10 -100 92
-314 250 -338 249 -19 0 -19 -1 -1 -12z"/>
<path d="M15904 6166 c-9 -36 21 -83 74 -117 67 -42 81 -36 25 13 -62 54 -72
67 -73 101 0 33 -17 36 -26 3z"/>
<path d="M5171 6176 c2 -2 57 -35 121 -74 283 -168 463 -338 603 -570 58 -96
54 -65 -5 40 -74 130 -113 179 -232 294 -112 107 -248 204 -385 273 -69 34
-119 52 -102 37z"/>
<path d="M3930 5865 c-129 -24 -251 -64 -349 -113 -110 -54 -150 -96 -158
-163 l-6 -44 39 44 c82 95 364 181 644 198 159 9 332 -20 615 -103 111 -32
135 -43 162 -73 l32 -34 10 24 c33 89 -110 168 -444 245 -102 23 -147 28 -295
30 -121 2 -198 -1 -250 -11z"/>
<path d="M16440 5651 c0 -21 27 -91 36 -91 3 0 3 8 1 18 -3 9 -8 34 -12 55 -6
38 -25 52 -25 18z"/>
<path d="M4960 5593 c-103 -332 -390 -1558 -390 -1667 0 -13 -7 -40 -15 -59
-8 -20 -15 -52 -15 -70 0 -32 -3 -35 -37 -41 -67 -11 -183 -6 -218 8 -45 19
-55 42 -55 126 0 53 -3 71 -12 68 -22 -7 -52 -81 -56 -139 -4 -51 -2 -59 28
-92 62 -71 196 -85 303 -33 26 12 47 19 47 15 0 -5 9 -33 20 -62 36 -95 127
-167 215 -169 l44 -1 0 -86 c0 -84 21 -184 41 -196 21 -13 8 -24 -42 -39 -75
-22 -147 -80 -179 -144 -26 -52 -26 -53 -32 -24 -9 45 -67 114 -117 140 -37
19 -56 23 -105 19 -74 -5 -139 -37 -160 -77 -22 -42 -19 -57 8 -33 36 34 66
45 121 45 101 1 156 -46 197 -169 15 -46 25 -63 39 -63 11 0 20 10 24 26 11
41 70 129 104 153 45 31 108 51 164 51 52 0 79 -10 115 -42 17 -16 25 -18 42
-9 41 22 21 82 -51 152 -52 52 -78 119 -78 203 0 74 32 186 53 186 5 0 53 31
106 69 53 38 159 109 236 158 337 215 734 483 753 508 42 53 23 76 -38 45 -92
-47 -657 -419 -794 -523 -44 -33 -112 -89 -153 -124 -54 -48 -78 -63 -92 -58
-25 8 -69 -15 -99 -50 -22 -25 -29 -27 -83 -23 -76 5 -122 41 -165 125 -43 84
-54 170 -26 210 24 34 13 -12 211 913 159 745 178 840 168 840 -4 0 -16 -30
-27 -67z"/>
<path d="M5088 5650 c-29 -18 -21 -25 41 -38 66 -14 233 -95 330 -161 133 -91
275 -245 412 -450 129 -191 204 -370 224 -536 8 -61 25 -91 47 -82 31 11 37
146 13 260 -26 125 -154 360 -294 542 -74 97 -180 204 -262 265 -172 128 -450
237 -511 200z"/>
<path d="M1972 5534 c3 -17 21 -21 26 -6 1 5 -4 12 -13 16 -11 4 -15 1 -13
-10z"/>
<path d="M3333 5480 c3 -25 91 -211 224 -478 121 -240 259 -527 307 -637 111
-251 234 -495 252 -502 39 -15 30 29 -47 237 -146 393 -542 1195 -686 1388
-35 47 -57 43 -50 -8z"/>
<path d="M3113 5451 c-180 -62 -551 -360 -709 -571 -109 -144 -204 -366 -204
-476 0 -48 19 -84 45 -84 19 0 22 6 22 43 0 83 77 266 178 417 125 189 606
593 753 633 48 13 51 19 20 41 -28 20 -41 20 -105 -3z"/>
<path d="M1880 5399 c0 -5 5 -7 10 -4 6 3 10 8 10 11 0 2 -4 4 -10 4 -5 0 -10
-5 -10 -11z"/>
<path d="M4678 5355 c-4 -11 -16 -78 -28 -150 -28 -177 -81 -460 -141 -759
-28 -136 -48 -250 -46 -253 19 -18 136 502 202 899 23 141 32 317 13 263z"/>
<path d="M2419 5303 c-62 -65 -127 -145 -186 -228 -96 -136 -82 -127 24 15 39
52 106 132 149 178 44 45 74 82 69 82 -6 0 -31 -21 -56 -47z"/>
<path d="M2327 5098 c-73 -103 -198 -337 -261 -487 -56 -132 -13 -65 92 146
95 189 150 289 210 381 8 12 12 22 9 22 -3 0 -26 -28 -50 -62z"/>
<path d="M3373 4990 c39 -98 341 -781 380 -860 77 -157 72 -95 -9 107 -129
322 -314 712 -356 749 -15 14 -20 15 -15 4z"/>
<path d="M2153 4958 c-15 -20 -25 -38 -20 -38 3 0 12 11 21 25 17 26 16 35 -1
13z"/>
<path d="M1515 4901 c-3 -5 -1 -12 4 -15 5 -3 11 1 15 9 6 16 -9 21 -19 6z"/>
<path d="M16182 4883 c-31 -59 -24 -208 12 -249 22 -26 76 -37 83 -18 2 6 -12
21 -31 32 -29 17 -36 28 -46 78 -7 32 -10 84 -8 116 2 32 3 58 1 58 -1 0 -6
-8 -11 -17z"/>
<path d="M15888 4879 c-24 -13 -58 -72 -58 -100 0 -37 34 -84 73 -102 59 -29
63 -19 13 32 -55 56 -60 81 -27 137 24 40 24 47 -1 33z"/>
<path d="M1677 4850 c-10 -16 -22 -30 -28 -30 -5 0 -9 -4 -9 -10 0 -17 36 -11
53 8 17 19 23 62 9 62 -4 0 -16 -13 -25 -30z"/>
<path d="M4336 4848 c-3 -18 -11 -91 -16 -163 -6 -71 -20 -206 -31 -298 -11
-92 -18 -173 -16 -180 7 -18 37 93 53 196 15 91 32 477 22 477 -3 0 -9 -15
-12 -32z"/>
<path d="M5066 4700 c-58 -78 -160 -249 -216 -360 -46 -91 -103 -231 -97 -237
3 -2 39 61 82 139 43 79 125 223 182 321 108 184 132 249 49 137z"/>
<path d="M5233 4592 c-109 -91 -193 -194 -316 -390 -154 -246 -162 -282 -15
-73 132 188 186 260 282 371 123 144 120 140 113 140 -3 0 -32 -22 -64 -48z"/>
<path d="M5770 4474 c-296 -185 -700 -500 -742 -577 -11 -21 -11 -21 18 -2 16
10 92 67 169 125 77 59 221 165 320 235 232 165 379 285 349 285 -5 0 -56 -30
-114 -66z"/>
<path d="M4091 4505 c-1 -30 45 -225 62 -265 25 -58 20 -7 -12 120 -34 131
-49 177 -50 145z"/>
<path d="M17490 4457 c0 -24 56 -77 81 -77 12 0 20 1 18 3 -2 2 -25 23 -51 47
-31 27 -48 37 -48 27z"/>
<path d="M1364 4378 c-6 -33 -14 -52 -22 -50 -7 1 -18 3 -24 5 -26 5 -12 -28
15 -37 39 -14 59 10 65 78 4 45 2 56 -10 56 -10 0 -18 -17 -24 -52z"/>
<path d="M16074 4409 c-10 -17 67 -122 98 -133 43 -15 45 1 6 42 -19 20 -45
52 -57 70 -24 34 -35 39 -47 21z"/>
<path d="M6180 4318 c92 -53 160 -131 227 -264 136 -268 254 -630 300 -924 14
-89 18 -172 18 -370 -1 -276 -12 -361 -68 -500 -21 -52 -23 -61 -10 -72 20
-16 60 6 90 51 34 50 69 172 83 284 16 128 8 487 -15 617 -40 234 -156 572
-285 831 -103 205 -178 295 -295 350 -83 40 -115 38 -45 -3z"/>
<path d="M15901 4313 c-16 -34 -26 -132 -17 -167 11 -46 86 -69 141 -44 39 17
30 28 -23 28 -68 0 -87 17 -87 77 0 26 3 67 8 91 8 48 -4 56 -22 15z"/>
<path d="M2250 4295 c0 -42 562 -325 880 -443 182 -68 529 -175 546 -168 8 3
14 14 14 25 0 25 -90 69 -275 135 -314 112 -398 146 -699 283 -175 79 -341
153 -368 164 -59 23 -98 25 -98 4z"/>
<path d="M3388 4226 c111 -118 180 -205 236 -296 29 -46 46 -66 46 -54 0 26
-41 105 -83 159 -44 56 -194 211 -242 248 -25 20 -9 -2 43 -57z"/>
<path d="M2172 4243 c-23 -9 -90 -121 -122 -205 -74 -192 -110 -392 -110 -621
0 -163 16 -270 54 -352 26 -56 59 -95 81 -95 20 0 19 3 -10 75 -37 95 -49 218
-36 403 21 297 51 422 183 750 11 28 11 34 -2 42 -17 11 -19 11 -38 3z"/>
<path d="M17535 4240 c7 -12 102 -12 130 0 14 6 -5 9 -58 9 -50 1 -76 -3 -72
-9z"/>
<path d="M1311 4115 c-17 -18 -19 -25 -8 -25 17 0 40 25 35 39 -1 6 -14 -1
-27 -14z"/>
<path d="M16250 4108 c-24 -51 9 -106 78 -129 58 -19 59 4 3 44 -33 24 -53 46
-57 64 -3 16 -7 33 -9 38 -1 6 -8 -2 -15 -17z"/>
<path d="M3350 4066 c0 -8 209 -146 221 -146 17 0 9 8 -38 43 -55 40 -183 112
-183 103z"/>
<path d="M6010 4026 c-130 -54 -313 -155 -284 -156 30 -1 285 116 349 159 25
17 27 21 10 21 -11 -1 -45 -11 -75 -24z"/>
<path d="M15715 3976 c-20 -30 -22 -124 -4 -158 46 -90 134 -120 226 -78 69
31 171 105 160 117 -2 2 -46 -17 -97 -41 -114 -56 -151 -64 -196 -42 -61 28
-99 126 -74 190 14 38 6 44 -15 12z"/>
<path d="M2412 3910 c-94 -10 -104 -20 -21 -20 146 -1 228 -19 665 -144 303
-86 318 -90 310 -78 -19 32 -330 142 -562 200 -173 44 -278 55 -392 42z"/>
<path d="M4015 3910 c-3 -5 -3 -25 0 -44 16 -81 -39 -292 -98 -379 -36 -53
-53 -62 -90 -48 -29 11 -37 6 -37 -24 0 -30 43 -68 77 -67 15 1 44 2 64 3 43
1 93 -23 115 -56 9 -13 27 -79 40 -147 26 -130 41 -161 68 -138 33 27 10 233
-34 304 -25 42 -70 66 -120 66 -42 0 -42 0 -26 23 94 130 144 361 101 464 -20
47 -46 66 -60 43z"/>
<path d="M5925 3835 c-5 -2 -41 -13 -80 -25 -139 -43 -387 -168 -570 -288
-114 -74 -112 -95 3 -33 153 82 429 219 517 257 90 38 175 82 175 90 0 5 -30
4 -45 -1z"/>
<path d="M1369 3682 c-11 -27 -18 -32 -36 -27 -25 6 -31 -9 -10 -22 28 -17 48
-13 58 14 5 15 8 36 6 47 -3 18 -6 16 -18 -12z"/>
<path d="M16973 3595 c-15 -47 -16 -104 -3 -125 15 -24 21 7 18 91 l-3 74 -12
-40z"/>
<path d="M2872 3585 c11 -11 284 -25 343 -18 l60 7 -45 7 c-52 9 -366 12 -358
4z"/>
<path d="M863 3453 c-18 -36 -29 -45 -67 -58 -18 -5 -18 -7 -3 -22 34 -34 100
15 113 85 9 46 -19 43 -43 -5z"/>
<path d="M1392 3473 c-6 -12 -12 -34 -12 -50 l1 -28 15 28 c8 16 14 38 12 50
l-3 22 -13 -22z"/>
<path d="M3095 3419 c-77 -10 -167 -22 -200 -25 l-60 -7 45 -10 c30 -6 83 -5
157 2 107 11 301 46 311 56 11 10 -118 2 -253 -16z"/>
<path d="M6202 3356 c-96 -39 -114 -52 -57 -41 60 10 193 54 200 65 13 21 -64
8 -143 -24z"/>
<path d="M3570 3373 c-104 -18 -359 -92 -565 -163 -106 -37 -524 -187 -595
-214 -66 -26 -290 -87 -306 -84 -9 2 -21 -5 -28 -15 -9 -15 -7 -22 13 -38 60
-49 205 -8 912 259 286 109 479 175 629 217 52 15 99 31 105 36 9 9 -115 11
-165 2z"/>
<path d="M16943 3313 c-16 -84 -4 -157 24 -140 11 7 4 177 -7 177 -5 0 -12
-17 -17 -37z"/>
<path d="M756 3271 c-9 -17 -21 -31 -26 -31 -6 0 -10 -7 -10 -15 0 -35 52 -6
65 36 12 37 -12 45 -29 10z"/>
<path d="M16637 3225 c-18 -92 -19 -136 -3 -160 31 -47 39 -31 32 61 -4 47
-11 95 -15 107 -8 21 -9 20 -14 -8z"/>
<path d="M802 3130 c2 -19 8 -33 13 -30 12 6 8 41 -6 55 -7 7 -9 -1 -7 -25z"/>
<path d="M695 3093 c3 -10 11 -40 17 -66 6 -29 15 -46 21 -44 17 6 13 72 -7
102 -19 29 -42 34 -31 8z"/>
<path d="M1146 3101 c-3 -5 1 -14 9 -21 14 -12 26 -46 40 -112 6 -32 31 -37
39 -10 8 24 -18 109 -40 133 -18 20 -39 25 -48 10z"/>
<path d="M6151 3085 c8 -7 192 -35 234 -35 65 1 21 17 -80 29 -94 11 -162 14
-154 6z"/>
<path d="M3889 3033 c-54 -57 -208 -245 -235 -288 l-18 -30 23 20 c36 31 290
345 279 345 -2 0 -24 -21 -49 -47z"/>
<path d="M5235 2963 c100 -92 423 -357 570 -467 153 -115 731 -524 796 -564
65 -40 104 -25 72 28 -32 55 -287 245 -743 555 -96 65 -276 189 -400 275 -318
222 -401 271 -295 173z"/>
<path d="M930 2975 c-50 -126 176 -741 416 -1133 235 -384 583 -748 899 -942
340 -209 993 -393 1470 -414 66 -3 188 -9 270 -12 327 -14 766 36 1240 141
323 72 575 145 575 166 0 16 -53 10 -231 -26 -359 -73 -696 -125 -1009 -157
-168 -17 -716 -17 -840 0 -264 36 -468 97 -687 207 -329 165 -542 332 -839
659 -117 130 -140 125 -49 -9 204 -303 426 -509 750 -698 109 -63 97 -64 -66
-6 -327 116 -541 233 -761 416 -354 295 -671 727 -901 1228 -89 193 -151 353
-182 465 -15 52 -30 106 -35 120 l-8 25 -12 -30z"/>
<path d="M3095 2971 c-181 -64 -685 -295 -672 -307 10 -10 101 24 337 126 219
95 430 195 430 205 0 9 -13 5 -95 -24z"/>
<path d="M16250 2952 c-70 -70 -59 -249 16 -268 37 -9 39 -1 10 49 -18 31 -26
58 -26 93 0 55 29 113 61 121 15 4 17 8 8 19 -17 21 -38 17 -69 -14z"/>
<path d="M6000 2927 c8 -7 350 -153 388 -165 60 -20 32 10 -44 48 -85 42 -368
139 -344 117z"/>
<path d="M4097 2838 c-63 -95 -167 -300 -339 -668 -131 -279 -189 -390 -310
-583 -46 -73 -78 -134 -74 -142 25 -65 166 104 304 365 116 220 492 1052 492
1089 0 37 -18 22 -73 -61z"/>
<path d="M3819 2842 c-57 -60 -217 -253 -242 -292 -22 -34 153 150 204 215
129 164 140 186 38 77z"/>
<path d="M785 2880 c10 -35 25 -49 25 -23 0 11 -7 27 -16 34 -15 12 -16 11 -9
-11z"/>
<path d="M16651 2837 c-14 -35 -14 -82 -1 -108 11 -19 43 -25 74 -13 26 10 18
24 -14 24 -28 0 -30 3 -31 38 -1 20 -4 48 -9 62 l-7 25 -12 -28z"/>
<path d="M5780 2836 c14 -12 92 -68 475 -332 164 -114 160 -111 147 -88 -24
46 -142 140 -327 264 -194 129 -264 169 -295 170 -12 0 -12 -2 0 -14z"/>
<path d="M2125 2820 c-28 -46 -21 -252 16 -460 35 -201 96 -353 200 -500 127
-180 391 -384 586 -451 59 -20 196 -26 222 -10 23 15 4 40 -36 46 -107 18
-199 60 -353 162 -295 196 -456 424 -544 770 -32 126 -66 332 -66 401 0 48
-10 66 -25 42z"/>
<path d="M1118 2815 c-3 -3 3 -22 13 -43 11 -20 19 -42 19 -49 0 -7 7 -13 15
-13 22 0 19 52 -6 84 -20 26 -31 31 -41 21z"/>
<path d="M1272 2735 c28 -51 28 -51 28 -32 0 9 -11 29 -25 44 l-26 28 23 -40z"/>
<path d="M4441 2745 c-7 -105 -34 -370 -46 -449 -8 -55 -13 -101 -11 -103 7
-7 34 88 50 172 20 108 28 278 17 345 -4 30 -9 46 -10 35z"/>
<path d="M4650 2686 c0 -14 218 -809 267 -971 124 -413 299 -792 355 -772 27
9 9 77 -64 247 -85 197 -163 410 -333 910 -131 384 -223 625 -225 586z"/>
<path d="M4290 2623 c-7 -32 -30 -116 -52 -187 -21 -70 -37 -131 -34 -133 8
-8 52 87 74 159 20 65 41 218 29 218 -3 0 -11 -26 -17 -57z"/>
<path d="M1210 2650 c0 -5 5 -10 12 -10 6 0 20 -7 30 -17 18 -16 23 -8 12 21
-7 17 -54 22 -54 6z"/>
<path d="M15674 2608 c-41 -47 -60 -128 -29 -128 8 0 15 9 15 20 0 24 19 69
39 93 23 28 -1 42 -25 15z"/>
<path d="M2845 2571 c-28 -10 -62 -24 -75 -31 -44 -22 -210 -122 -210 -126 0
-10 286 131 325 160 26 20 21 19 -40 -3z"/>
<path d="M16116 2547 c-24 -36 -39 -119 -27 -150 19 -50 41 -27 41 44 0 22 7
56 15 76 8 19 15 39 15 44 0 18 -30 8 -44 -14z"/>
<path d="M1235 2411 c-3 -6 7 -16 22 -23 16 -7 35 -28 43 -45 18 -39 40 -43
40 -7 0 47 -84 108 -105 75z"/>
<path d="M15450 2391 c-13 -26 -13 -54 2 -69 20 -20 23 -14 25 38 1 52 -9 64
-27 31z"/>
<path d="M2853 2356 c-32 -24 -67 -54 -78 -67 l-20 -23 30 19 c40 24 145 105
145 111 0 12 -24 0 -77 -40z"/>
<path d="M7030 2258 c-79 -271 -237 -597 -449 -928 -36 -55 10 -5 56 62 158
229 308 518 377 728 39 118 67 250 54 250 -3 0 -20 -51 -38 -112z"/>
<path d="M16230 2338 c-35 -58 -17 -118 38 -118 22 0 42 22 25 27 -6 2 -18 9
-27 16 -15 11 -16 17 -5 40 7 15 19 27 26 27 23 0 10 35 -14 38 -16 2 -28 -6
-43 -30z"/>
<path d="M15711 2284 c-12 -15 -28 -49 -36 -77 -13 -45 -13 -53 1 -74 21 -32
40 -24 36 15 -3 27 12 67 56 155 10 20 -39 4 -57 -19z"/>
<path d="M16002 2208 c-38 -49 -54 -122 -30 -146 17 -17 73 -15 116 5 l37 18
-62 3 c-55 3 -63 5 -63 23 0 31 27 77 50 84 11 3 20 11 20 16 0 14 -56 11 -68
-3z"/>
<path d="M1466 2192 c12 -9 29 -32 38 -49 20 -41 26 -41 26 -3 0 36 -31 70
-62 70 l-23 0 21 -18z"/>
<path d="M1458 2053 c7 -3 20 -19 28 -35 12 -22 18 -27 24 -18 14 23 -10 60
-39 59 -14 0 -20 -3 -13 -6z"/>
<path d="M15469 1976 c-3 -3 -23 -7 -44 -9 -33 -3 -45 -11 -67 -43 -33 -47
-45 -98 -28 -119 23 -27 111 -12 124 21 4 11 -4 12 -39 7 -40 -5 -45 -4 -45
14 0 34 56 101 86 105 15 2 29 9 32 16 3 11 -10 17 -19 8z"/>
<path d="M6075 1925 c22 -20 54 -46 70 -57 22 -15 20 -10 -10 17 -22 20 -53
46 -70 57 -22 15 -20 10 10 -17z"/>
<path d="M6451 1899 c-5 -13 -18 -64 -30 -114 -53 -229 -179 -378 -467 -551
-179 -108 -390 -160 -551 -137 -43 6 -80 10 -81 8 -10 -9 58 -40 112 -52 197
-41 471 28 687 174 163 110 273 225 326 341 50 106 66 303 29 340 -13 14 -16
13 -25 -9z"/>
<path d="M4346 1898 c-3 -7 -7 -44 -11 -83 -3 -38 -28 -180 -55 -315 -56 -280
-68 -364 -51 -374 18 -12 29 29 77 289 42 233 69 495 50 495 -4 0 -8 -6 -10
-12z"/>
<path d="M5940 1784 c89 -90 138 -130 146 -121 13 13 -196 207 -222 207 -5 0
30 -39 76 -86z"/>
<path d="M6917 1683 c-106 -210 -173 -353 -158 -338 12 12 230 433 250 483 8
18 11 35 9 38 -3 3 -49 -80 -101 -183z"/>
<path d="M1616 1851 c-6 -9 74 -54 82 -46 3 2 -3 16 -12 30 -16 25 -59 35 -70
16z"/>
<path d="M5106 1758 c4 -7 21 -33 38 -58 17 -24 76 -134 131 -244 55 -110 106
-202 113 -204 19 -6 7 35 -44 158 -75 177 -192 360 -231 360 -8 0 -11 -5 -7
-12z"/>
<path d="M5500 1717 c0 -2 39 -72 88 -155 48 -83 104 -183 125 -222 43 -81 62
-91 42 -23 -24 80 -255 442 -255 400z"/>
<path d="M3792 1698 c-5 -7 -28 -59 -50 -116 -23 -56 -57 -129 -76 -162 -36
-61 -30 -82 12 -37 55 59 160 281 148 313 -7 17 -20 18 -34 2z"/>
<path d="M1710 1670 c38 -33 50 -37 50 -17 0 21 -34 47 -61 47 -23 -1 -23 -2
11 -30z"/>
<path d="M5778 1590 c57 -55 114 -105 125 -111 27 -12 -180 188 -208 202 -11
5 27 -35 83 -91z"/>
<path d="M3933 1503 c-36 -82 -67 -173 -60 -179 6 -6 85 175 93 215 10 49 -1
37 -33 -36z"/>
<path d="M1877 1523 c-12 -11 -8 -20 18 -31 13 -6 31 -25 40 -42 8 -16 22 -30
30 -30 26 0 16 41 -19 76 -33 33 -55 42 -69 27z"/>
<path d="M4032 1479 c-6 -15 -13 -44 -16 -65 l-6 -39 21 43 c11 24 19 53 16
65 -3 21 -4 21 -15 -4z"/>
<path d="M4527 1320 c5 -199 7 -215 24 -204 16 10 5 285 -14 344 -13 42 -14
32 -10 -140z"/>
<path d="M4711 1418 c-3 -19 22 -165 30 -178 12 -19 0 78 -17 140 -7 25 -13
42 -13 38z"/>
<path d="M1984 1315 c16 -36 22 -41 24 -25 2 12 -4 32 -12 46 -27 40 -34 27
-12 -21z"/>
<path d="M3430 1322 c0 -13 221 -211 313 -281 87 -65 268 -154 372 -182 121
-33 316 -31 445 4 170 45 353 137 327 163 -4 4 -60 -9 -125 -30 -184 -58 -251
-69 -407 -70 -117 0 -153 3 -220 22 -108 31 -240 97 -355 177 -195 136 -289
195 -319 201 -19 4 -31 2 -31 -4z"/>
<path d="M2112 1225 c26 -27 34 -31 37 -18 4 18 -33 53 -55 53 -9 0 -2 -14 18
-35z"/>
<path d="M2220 1125 c0 -8 6 -15 13 -15 7 0 28 -11 47 -25 19 -14 38 -25 42
-25 18 0 6 30 -23 54 -34 29 -79 35 -79 11z"/>
</g>
</svg>
